<svg version="1.1" id="Layer_1" xmlns="http://www.w3.org/2000/svg" xmlns:xlink="http://www.w3.org/1999/xlink" x="0px" y="0px"
	 width="100%" viewBox="0 0 378 119" enable-background="new 0 0 378 119" xml:space="preserve">
<path fill="#ffffff" opacity="1.000000" stroke="none" 
	d="
M1.000001,63.000000 
	C1.000000,60.958332 1.000000,58.916668 1.196920,56.825195 
	C2.411832,55.324486 3.627657,53.973286 4.416930,52.407127 
	C11.577162,38.198994 18.767529,24.003801 25.680849,9.675406 
	C27.039589,6.859309 28.489908,5.926267 31.582775,5.928764 
	C137.496765,6.014289 243.410858,6.023887 349.324768,5.892946 
	C352.780182,5.888674 354.183380,7.173020 355.516571,9.953968 
	C362.667084,24.869402 369.961029,39.716164 377.272827,54.553432 
	C377.444336,54.901478 378.406586,54.859859 379.000000,55.000000 
	C379.000000,57.370556 379.000000,59.741116 378.750793,62.217144 
	C377.614624,63.669563 376.607361,64.953148 375.859467,66.373291 
	C368.616211,80.127075 361.347809,93.868607 354.266205,107.705574 
	C352.955414,110.266724 351.412506,111.063271 348.593658,111.061302 
	C243.605118,110.988052 138.616486,110.984489 33.627968,111.072708 
	C30.508150,111.075325 28.987673,109.990067 27.520235,107.348640 
	C19.851620,93.544968 11.983037,79.851837 4.096681,66.170601 
	C3.381964,64.930710 2.046953,64.048378 1.000001,63.000000 
z"/>

</svg>